<svg xmlns="http://www.w3.org/2000/svg" width="15" height="15" viewBox="0 0 15 15"><defs><style>.a{fill:#4c4c5c;}</style></defs><path class="a" d="M5.156,6.325H9.844a.469.469,0,0,0,.469-.469V5.388a.469.469,0,0,0-.469-.469H5.156a.469.469,0,0,0-.469.469v.469A.469.469,0,0,0,5.156,6.325ZM4.688,8.669a.469.469,0,0,0,.469.469H9.844a.469.469,0,0,0,.469-.469V8.2a.469.469,0,0,0-.469-.469H5.156a.469.469,0,0,0-.469.469ZM7.5,12.218a2.34,2.34,0,0,1-1.373-.445L0,7.346v6.244A1.406,1.406,0,0,0,1.406,15H13.594A1.406,1.406,0,0,0,15,13.591V7.346L8.873,11.773a2.342,2.342,0,0,1-1.373.445Zm6.961-7.447c-.259-.2-.505-.395-.867-.668V2.81A1.406,1.406,0,0,0,12.188,1.4H9.916l-.265-.192C9.158.852,8.18-.013,7.5,0c-.68-.01-1.658.855-2.151,1.214L5.084,1.4H2.813A1.406,1.406,0,0,0,1.406,2.81V4.1c-.362.273-.608.465-.867.668A1.406,1.406,0,0,0,0,5.877v.312L2.813,8.221V2.81h9.375V8.221L15,6.189V5.877a1.406,1.406,0,0,0-.539-1.107Z" transform="translate(0 0.003)"/></svg>