<svg xmlns="http://www.w3.org/2000/svg" width="15" height="11.25" viewBox="0 0 15 11.25"><defs><style>.a{fill:#4c4c5c;}</style></defs><path class="a" d="M13.594,64H1.406A1.406,1.406,0,0,0,0,65.406v8.438A1.406,1.406,0,0,0,1.406,75.25H13.594A1.406,1.406,0,0,0,15,73.844V65.406A1.406,1.406,0,0,0,13.594,64Zm-.176,9.844H1.582a.176.176,0,0,1-.176-.176V65.582a.176.176,0,0,1,.176-.176H13.418a.176.176,0,0,1,.176.176v8.086A.176.176,0,0,1,13.418,73.844ZM3.75,66.578A1.172,1.172,0,1,0,4.922,67.75,1.172,1.172,0,0,0,3.75,66.578Zm-.937,5.859h9.375V70.094L9.624,67.53a.352.352,0,0,0-.5,0l-3.5,3.5L4.467,69.874a.352.352,0,0,0-.5,0L2.813,71.031Z" transform="translate(0 -64)"/></svg>