<svg xmlns="http://www.w3.org/2000/svg" width="21.466" height="20.923" viewBox="0 0 21.466 20.923"><defs><style>.a{fill:#fdfdfd;}</style></defs><path class="a" d="M12.339,39.051l-1.064-1.064a1.145,1.145,0,0,0-1.624,0L.338,47.3a1.145,1.145,0,0,0,0,1.624l9.314,9.314a1.145,1.145,0,0,0,1.624,0l1.064-1.064a1.151,1.151,0,0,0-.019-1.643l-5.773-5.5h13.77a1.147,1.147,0,0,0,1.15-1.15V47.345a1.147,1.147,0,0,0-1.15-1.15H6.547l5.773-5.5A1.143,1.143,0,0,0,12.339,39.051Z" transform="translate(0 -37.65)"/></svg>