<svg xmlns="http://www.w3.org/2000/svg" width="21.466" height="20.923" viewBox="0 0 21.466 20.923"><defs><style>.a{fill:#fdfdfd;}</style></defs><path class="a" d="M9.127,39.051l1.064-1.064a1.145,1.145,0,0,1,1.624,0L21.129,47.3a1.145,1.145,0,0,1,0,1.624l-9.314,9.314a1.145,1.145,0,0,1-1.624,0L9.127,57.171a1.151,1.151,0,0,1,.019-1.643l5.773-5.5H1.15A1.147,1.147,0,0,1,0,48.878V47.345a1.147,1.147,0,0,1,1.15-1.15h13.77l-5.773-5.5A1.143,1.143,0,0,1,9.127,39.051Z" transform="translate(0 -37.65)"/></svg>